<svg xmlns="http://www.w3.org/2000/svg" viewBox="0 0 24 24" fill="white" width="24" height="24">
	<path d="M21.15,13.45c-.58,4.77-4,5.07-4.61,5.27a18.72,18.72,0,0,1-5.87.51L7.28,23V18.67h0C2.7,17.37,2.85,12.52,2.91,10s.52-4.63,1.91-6c2.49-2.31,7.63-2,7.63-2,4.34,0,6.41,1.36,6.9,1.8,1.6,1.4,2.41,4.76,1.82,9.67M20.51,2.59c-.57-.54-2.87-2.25-8-2.27,0,0-6-.37-9,2.39C1.89,4.39,1.31,6.85,1.25,9.9s-.14,8.76,5.24,10.3h0v2.36s0,1,.58,1.15S8.25,23.23,9,22.44c.39-.43.93-1.06,1.33-1.54a20.31,20.31,0,0,0,6.83-.51c.74-.25,4.94-.8,5.63-6.51.7-5.89-.34-9.61-2.23-11.29M17.24,14.16s-.69-.59-1-.84a13.13,13.13,0,0,0-1.1-.72,1,1,0,0,0-1.24.18l-.44.57a.68.68,0,0,1-.67.22,4.7,4.7,0,0,1-2.07-1.27,4.27,4.27,0,0,1-1.31-2.18v0a.86.86,0,0,1,.14-.67l0,0c.3-.28.86-.62.93-.94.22-.56-.73-1.73-.86-1.94a9.27,9.27,0,0,0-.93-1.09.91.91,0,0,0-1.09-.09l0,0c-1.19.8-1.62,1.27-1.5,2l.06.28a14.92,14.92,0,0,0,3.5,5.73A15.18,15.18,0,0,0,15,16.89a1.49,1.49,0,0,0,1.47-.41h0a4.71,4.71,0,0,0,.92-1.16h0a.88.88,0,0,0-.18-1.14M14.39,10h0a.14.14,0,0,0,.13-.15,2,2,0,0,0-.47-1.3,1.77,1.77,0,0,0-1.23-.5.14.14,0,0,0,0,.28,1.51,1.51,0,0,1,1.05.41,1.71,1.71,0,0,1,.39,1.12.14.14,0,0,0,.14.13m1.35.46a.14.14,0,0,0,.14-.14A3.6,3.6,0,0,0,15,7.76a3.67,3.67,0,0,0-2.57-1.15.14.14,0,0,0,0,.28,4.1,4.1,0,0,1,1.37.32,3,3,0,0,1,1,.74,3.33,3.33,0,0,1,.82,2.38.14.14,0,0,0,.13.14h0m1.39.55a.14.14,0,0,0,.14-.14,6.91,6.91,0,0,0-.39-2.34,5,5,0,0,0-1.15-1.8,5.21,5.21,0,0,0-3.78-1.53h0a.14.14,0,0,0,0,.28,5.32,5.32,0,0,1,2,.37,4.88,4.88,0,0,1,1.62,1.08,4.69,4.69,0,0,1,1.08,1.7A6.61,6.61,0,0,1,17,10.89a.14.14,0,0,0,.14.14Z"/>
</svg>